<?xml version="1.0" encoding="UTF-8"?>
<svg width="1200pt" height="1200pt" version="1.1" viewBox="0 0 1200 1200" xmlns="http://www.w3.org/2000/svg">
 <g>
  <path d="m995.9 1003.6c-65.352-38-68.148-45.352-164.15-145.6-95.949-100.3-214.3 72.898-214.3 72.898-151.35-64.648-317.6-270.65-335.7-500.85 0 0 205.1-43.602 148.95-170.5-56.199-126.9-62.051-132.3-72.301-207.15 5.6016-28.25-28.801-90.648-151.25-19.5-75.898 50.848-289.25 252.9 61.852 768.55 343.55 520.9 611.5 400.35 687.4 349.45 112.3-86.246 67.75-141.7 39.5-147.3z"/>
  <path d="m716.6 126.7h-109.35v109.35h109.35zm205.05 196h-109.3v109.35h109.3zm0-196h-109.3v109.35h109.3zm-205.05 196h-109.35v109.35h109.35zm205.05 195.85h-109.3v109.3h109.3zm95.703-391.85v109.35h109.3l-0.003906-109.35zm0 305.35h109.3l-0.003906-109.35h-109.3zm-300.75 86.5h-109.35v109.3h109.35zm300.75 109.35h109.3v-109.3h-109.3z"/>
 </g>
</svg>
